<mxfile host="app.diagrams.net" modified="2024-02-15T16:11:39.312Z" agent="Mozilla/5.0 (Windows NT 10.0; Win64; x64) AppleWebKit/537.36 (KHTML, like Gecko) Chrome/121.0.0.0 Safari/537.36" version="23.1.4" etag="wFvASct3MfRhpkueicH4" type="github">
  <diagram name="Seite-1" id="3uX-WEUTsrg--WSZjaHs">
    <mxGraphModel>
      <root>
        <mxCell id="0" />
        <mxCell id="1" parent="0" />
      </root>
    </mxGraphModel>
  </diagram>
</mxfile>
